<?xml version="1.0" encoding="utf-8"?>
<svg data-name="Layer 1" viewBox="7.634 3.34 84.494 93.034" x="0px" y="0px" xmlns="http://www.w3.org/2000/svg">
  <title>96all</title>
  <path d="M75.69,7h0a8.46,8.46,0,0,0-9.18-2.42L27.68,18.09c-2,.61-3.86,2.45-5.5,4.08a2.71,2.71,0,0,0-.24.27L10.5,37.77l-.08.11A13.6,13.6,0,0,0,9.16,50.61c.66,1.64,2.27,4.72,4.32,8.63l1.39,2.66A20.88,20.88,0,1,0,52,75c0-.43,0-.86,0-1.3L72.05,63.36a14.66,14.66,0,0,0,5.41-4.66,2.42,2.42,0,0,0,.17-.28c2.56-4.83,10.16-19.76,13.3-26A8.45,8.45,0,0,0,89.75,23ZM31.1,90.9a15.89,15.89,0,1,1,0-31.77h.16l-1.07.57a12.47,12.47,0,0,0-6.45,7.41,11.57,11.57,0,0,0,.86,9.07,10.37,10.37,0,0,0,9.14,5.69,9.94,9.94,0,0,0,4.64-1.16l8.55-4.4A15.9,15.9,0,0,1,31.1,90.9ZM33.64,51a3.49,3.49,0,0,1,.66-4l3.86-3.85a4.53,4.53,0,0,1,3.19-1.31,4.44,4.44,0,0,1,.62,0l1.94.27a3.5,3.5,0,0,1,2.55,5.2L44,51.58a4.48,4.48,0,0,1-1.81,1.75l-3.93,2.08a20.73,20.73,0,0,0-2.87-.84ZM86.48,30.2C83.37,36.32,75.92,51,73.3,55.92a9.58,9.58,0,0,1-3.51,3L36.06,76.28A5.17,5.17,0,0,1,29,73.82a6.64,6.64,0,0,1-.5-5.21,7.55,7.55,0,0,1,4-4.46l12.09-6.4a9.48,9.48,0,0,0,3.81-3.7l2.43-4.27a8.5,8.5,0,0,0-6.2-12.62l-1.94-.27a9.43,9.43,0,0,0-1.31-.09,9.56,9.56,0,0,0-6.73,2.77l-3.86,3.85a8.49,8.49,0,0,0-1.6,9.82l.47.93-.58.06-.16,0a20.48,20.48,0,0,0-10.34,3.9l-.65-1.23c-1.9-3.63-3.54-6.76-4.11-8.19a8.63,8.63,0,0,1,.76-8L25.84,25.59c1-1,2.51-2.49,3.29-2.71l.14,0L68.15,9.29a3.48,3.48,0,0,1,3.78,1L86,26.32A3.48,3.48,0,0,1,86.48,30.2Z"/>
</svg>