<?xml version="1.0" encoding="UTF-8" standalone="no"?>
<!-- Generator: Adobe Illustrator 16.0.0, SVG Export Plug-In . SVG Version: 6.00 Build 0)  -->

<svg xmlns:dc="http://purl.org/dc/elements/1.1/" 
  xmlns:cc="http://creativecommons.org/ns#" 
  xmlns:rdf="http://www.w3.org/1999/02/22-rdf-syntax-ns#" 
  xmlns:svg="http://www.w3.org/2000/svg" 
  xmlns="http://www.w3.org/2000/svg" 
  xmlns:sodipodi="http://sodipodi.sourceforge.net/DTD/sodipodi-0.dtd" 
  xmlns:inkscape="http://www.inkscape.org/namespaces/inkscape" version="1.1" id="Layer_1" x="0px" y="0px" width="15.753" height="15.937" viewBox="0 0 15.753 15.937" xml:space="preserve" inkscape:version="0.91 r13725" sodipodi:docname="editor-h2.svg">
  <metadata id="metadata25">
    <rdf:RDF>
      <cc:Work rdf:about="">
        <dc:format>image/svg+xml</dc:format>
        <dc:type rdf:resource="http://purl.org/dc/dcmitype/StillImage" />
        <dc:title></dc:title>
      </cc:Work>
    </rdf:RDF>
  </metadata>
  <defs id="defs23" />
  <sodipodi:namedview pagecolor="#ffffff" bordercolor="#666666" borderopacity="1" objecttolerance="10" gridtolerance="10" guidetolerance="10" inkscape:pageopacity="0" inkscape:pageshadow="2" inkscape:window-width="640" inkscape:window-height="480" id="namedview21" showgrid="false" inkscape:zoom="2.4457594" inkscape:cx="-9.016" inkscape:cy="-11.971" inkscape:window-x="440" inkscape:window-y="74" inkscape:window-maximized="0" inkscape:current-layer="Layer_1" fit-margin-top="0" fit-margin-left="0" fit-margin-right="0" fit-margin-bottom="0" />
  <polygon points="64.41,29.077 64.41,18.14 62.278,18.14 62.278,22.371 57.654,22.371 57.654,18.14 55.522,18.14 55.522,29.077 57.654,29.077 57.654,24.207 62.278,24.207 62.278,29.077 " id="polygon13" transform="translate(-55.522,-15.14)" />
  <g id="g15" transform="translate(-55.522,-15.14)">
    <path d="m 66.318,29.077 4.957,0 0,-1.147 -2.469,0 1.179,-1.28 c 0.532,-0.574 1.239,-1.332 1.239,-2.387 0,-1.085 -0.819,-2.171 -2.407,-2.171 -1.353,0 -2.335,0.891 -2.397,2.284 l 1.373,0 c 0.021,-0.584 0.389,-1.137 1.085,-1.137 0.574,0 1.015,0.42 1.015,1.034 0,0.4 -0.216,0.82 -0.399,1.096 -0.246,0.369 -1.045,1.281 -1.168,1.424 l -2.008,2.284 z" id="path17" inkscape:connector-curvature="0" />
  </g>
</svg>