<?xml version="1.0" encoding="UTF-8" standalone="no"?>
<!-- Generator: Adobe Illustrator 16.0.0, SVG Export Plug-In . SVG Version: 6.00 Build 0)  -->

<svg
   xmlns:dc="http://purl.org/dc/elements/1.1/"
   xmlns:cc="http://creativecommons.org/ns#"
   xmlns:rdf="http://www.w3.org/1999/02/22-rdf-syntax-ns#"
   xmlns:svg="http://www.w3.org/2000/svg"
   xmlns="http://www.w3.org/2000/svg"
   xmlns:sodipodi="http://sodipodi.sourceforge.net/DTD/sodipodi-0.dtd"
   xmlns:inkscape="http://www.inkscape.org/namespaces/inkscape"
   version="1.1"
   id="Layer_1"
   x="0px"
   y="0px"
   width="10.423"
   height="11.003"
   viewBox="0 0 10.423001 11.003001"
   enable-background="new 0 0 46.766 46.766"
   xml:space="preserve"
   inkscape:version="0.91 r13725"
   sodipodi:docname="editor-bold.svg"><metadata
     id="metadata3717"><rdf:RDF><cc:Work
         rdf:about=""><dc:format>image/svg+xml</dc:format><dc:type
           rdf:resource="http://purl.org/dc/dcmitype/StillImage" /><dc:title></dc:title></cc:Work></rdf:RDF></metadata><defs
     id="defs3715" /><sodipodi:namedview
     pagecolor="#ffffff"
     bordercolor="#666666"
     borderopacity="1"
     objecttolerance="10"
     gridtolerance="10"
     guidetolerance="10"
     inkscape:pageopacity="0"
     inkscape:pageshadow="2"
     inkscape:window-width="640"
     inkscape:window-height="480"
     id="namedview3713"
     showgrid="false"
     inkscape:zoom="5.0464014"
     inkscape:cx="3.7119994"
     inkscape:cy="5.0030006"
     inkscape:window-x="44"
     inkscape:window-y="85"
     inkscape:window-maximized="0"
     inkscape:current-layer="Layer_1"
     fit-margin-top="0"
     fit-margin-left="0"
     fit-margin-right="0"
     fit-margin-bottom="0" /><path
     d="m 4.1246103,6.416161 0.793,0 c 0.462,0 1.007,0 1.469,0.215 0.693,0.314 0.809,0.908 0.809,1.255 0,0.429 -0.149,0.958 -0.677,1.271 -0.479,0.281 -1.073,0.297 -1.469,0.297 l -0.925,0 0,-3.038 z m 0,-4.471 0.628,0 c 0.875,0 1.651,0.38 1.651,1.387 0,1.403 -1.338,1.436 -1.668,1.436 l -0.611,0 0,-2.823 z m -2.143,-1.74699998 0,11.00299998 3.695,0 c 0.958,0 1.964,-0.164 2.788,-0.89 0.759,-0.675 0.94,-1.583 0.94,-2.227 0,-0.578 -0.132,-1.436 -0.791,-2.063 -0.281,-0.264 -0.709,-0.577 -1.435,-0.692 0.296,-0.165 1.236,-0.742 1.236,-2.162 0,-0.925 -0.379,-1.782 -1.022,-2.27699998 -0.89,-0.692 -2.079,-0.692 -2.69,-0.692 l -2.721,0 z"
     id="path3711"
     inkscape:connector-curvature="0"
     style="fill:#0d0d0d" /></svg>