<?xml version="1.0" encoding="UTF-8" standalone="no"?>
<!-- Generator: Adobe Illustrator 16.0.0, SVG Export Plug-In . SVG Version: 6.00 Build 0)  -->

<svg
   xmlns:dc="http://purl.org/dc/elements/1.1/"
   xmlns:cc="http://creativecommons.org/ns#"
   xmlns:rdf="http://www.w3.org/1999/02/22-rdf-syntax-ns#"
   xmlns:svg="http://www.w3.org/2000/svg"
   xmlns="http://www.w3.org/2000/svg"
   xmlns:sodipodi="http://sodipodi.sourceforge.net/DTD/sodipodi-0.dtd"
   xmlns:inkscape="http://www.inkscape.org/namespaces/inkscape"
   version="1.1"
   id="Layer_1"
   x="0px"
   y="0px"
   width="15.696"
   height="15.9"
   viewBox="0 0 15.696 15.9"
   enable-background="new 0 0 126.75 46.75"
   xml:space="preserve"
   inkscape:version="0.91 r13725"
   sodipodi:docname="editor-quote.svg"><metadata
     id="metadata25"><rdf:RDF><cc:Work
         rdf:about=""><dc:format>image/svg+xml</dc:format><dc:type
           rdf:resource="http://purl.org/dc/dcmitype/StillImage" /><dc:title></dc:title></cc:Work></rdf:RDF></metadata><defs
     id="defs23" /><sodipodi:namedview
     pagecolor="#ffffff"
     bordercolor="#666666"
     borderopacity="1"
     objecttolerance="10"
     gridtolerance="10"
     guidetolerance="10"
     inkscape:pageopacity="0"
     inkscape:pageshadow="2"
     inkscape:window-width="640"
     inkscape:window-height="480"
     id="namedview21"
     showgrid="false"
     inkscape:zoom="2.4457594"
     inkscape:cx="-9.1709677"
     inkscape:cy="0.73667742"
     inkscape:window-x="28"
     inkscape:window-y="66"
     inkscape:window-maximized="0"
     inkscape:current-layer="Layer_1"
     fit-margin-top="0"
     fit-margin-left="0"
     fit-margin-right="0"
     fit-margin-bottom="0" /><path
     d="m 9.585,11.9 c 0.479,-0.312 1.464,-1.056 2.112,-1.896 0.695,-0.936 1.199,-2.136 1.199,-3.264 0,-0.8639998 -0.288,-1.6079998 -0.743,-2.0639998 -0.385,-0.384 -1.032,-0.72 -1.729,-0.72 -1.176,0 -2.088,0.792 -2.088,2.016 C 8.336,7.1 9.176,7.94 10.304,7.94 c 0.192,0 0.408,-0.024 0.601,-0.096 0.168,-0.072 0.336,-0.12 0.527,-0.12 0.24,0 0.36,0.12 0.36,0.384 0,0.168 -0.072,0.504 -0.576,1.272 -0.552,0.792 -1.176,1.392 -2.016,1.968 L 9.585,11.9 Z m -6.336,0 C 3.728,11.588 4.713,10.844 5.361,10.004 6.056,9.068 6.56,7.868 6.56,6.74 6.56,5.8760002 6.272,5.1320002 5.817,4.6760002 c -0.385,-0.384 -1.032,-0.72 -1.729,-0.72 -1.176,0 -2.088,0.792 -2.088,2.016 C 2,7.1 2.84,7.94 3.968,7.94 4.16,7.94 4.376,7.916 4.569,7.844 4.737,7.772 4.905,7.724 5.096,7.724 c 0.24,0 0.36,0.12 0.36,0.384 0,0.168 -0.072,0.504 -0.576,1.272 -0.552,0.792 -1.176,1.392 -2.016,1.968 L 3.249,11.9 Z"
     id="path19"
     inkscape:connector-curvature="0"
     style="fill:#0d0d0d" /></svg>