<?xml version="1.0" encoding="utf-8"?>
<!-- Generator: Adobe Illustrator 16.0.0, SVG Export Plug-In . SVG Version: 6.00 Build 0)  -->
<!DOCTYPE svg PUBLIC "-//W3C//DTD SVG 1.1//EN" "http://www.w3.org/Graphics/SVG/1.1/DTD/svg11.dtd">
<svg version="1.1" id="Layer_1" xmlns="http://www.w3.org/2000/svg" xmlns:xlink="http://www.w3.org/1999/xlink" x="0px" y="0px"
	 width="16px" height="16px" viewBox="0 0 16 16" enable-background="new 0 0 16 16" xml:space="preserve">
<rect x="5.282" y="13.378" fill="#231F20" width="5.003" height="2.622"/>
<g>
	<defs>
		<rect id="SVGID_1_" x="2" y="0" width="11.566" height="16"/>
	</defs>
	<clipPath id="SVGID_2_">
		<use xlink:href="#SVGID_1_"  overflow="visible"/>
	</clipPath>
	<path clip-path="url(#SVGID_2_)" fill="#231F20" d="M12.315,5.783c0-2.504-2.03-4.532-4.532-4.532
		c-2.504,0-4.533,2.028-4.533,4.532c0,1.916,1.194,3.547,2.876,4.209c-0.375,0.404-0.61,0.941-0.61,1.537
		c0,1.251,1.015,2.266,2.267,2.266c1.25,0,2.266-1.015,2.266-2.266c0-0.596-0.235-1.133-0.61-1.537
		C11.121,9.33,12.315,7.7,12.315,5.783"/>
	<path clip-path="url(#SVGID_2_)" fill="none" stroke="#231F20" stroke-width="2.548" d="M12.315,5.783
		c0-2.504-2.03-4.532-4.532-4.532c-2.504,0-4.533,2.028-4.533,4.532c0,1.916,1.194,3.547,2.876,4.209
		c-0.375,0.404-0.61,0.941-0.61,1.537c0,1.251,1.015,2.266,2.267,2.266c1.25,0,2.266-1.015,2.266-2.266
		c0-0.596-0.235-1.133-0.61-1.537C11.121,9.33,12.315,7.7,12.315,5.783z"/>
	<path clip-path="url(#SVGID_2_)" fill="#FFFFFF" d="M11.426,5.933c0-2.011-1.631-3.642-3.643-3.642S4.14,3.922,4.14,5.933
		c0,1.541,0.96,2.852,2.312,3.383c-0.303,0.325-0.49,0.757-0.49,1.235c0,1.007,0.815,1.821,1.821,1.821
		c1.005,0,1.821-0.814,1.821-1.821c0-0.479-0.188-0.91-0.49-1.235C10.467,8.785,11.426,7.474,11.426,5.933"/>
</g>
</svg>
