<svg width="62" height="62" viewBox="0 0 62 62" fill="none" 
  xmlns="http://www.w3.org/2000/svg">
  <path d="M52.9847 33.796L52.9346 11.8711L24.2086 16.3659C24.1896 36.4504 24.1801 47.8666 24.1801 50.6143L24.1529 50.5797C23.7365 56.585 18.6068 61.3305 12.3401 61.3305C5.80098 61.3305 0.5 56.1636 0.5 49.79C0.5 43.4163 5.80098 38.2494 12.3401 38.2494C13.5156 38.2494 14.6511 38.4164 15.7229 38.7273V7.74944L61.3918 0.330517C61.5361 30.1807 61.5361 45.2933 61.3918 45.6684L61.3643 45.636C60.9469 51.6402 55.8177 56.3846 49.5517 56.3846C43.0126 56.3846 37.7116 51.2177 37.7116 44.844C37.7116 38.4704 43.0126 33.3035 49.5517 33.3035C50.7456 33.3035 51.8981 33.4757 52.9847 33.796Z" fill="currentColor"/>
</svg>
