<?xml version="1.0" encoding="utf-8"?>
<!-- Generator: Adobe Illustrator 16.0.0, SVG Export Plug-In . SVG Version: 6.00 Build 0)  -->
<!DOCTYPE svg PUBLIC "-//W3C//DTD SVG 1.1//EN" "http://www.w3.org/Graphics/SVG/1.1/DTD/svg11.dtd">
<svg version="1.1" id="Layer_1" 
	xmlns="http://www.w3.org/2000/svg" 
	xmlns:xlink="http://www.w3.org/1999/xlink" x="0px" y="0px" width="26.5px" height="15.94px" viewBox="0 0 26.5 15.94" xml:space="preserve">
	<g>
		<defs>
			<rect id="SVGID_3_" y="-0.125" width="26.316" height="16.065"/>
		</defs>
		<clipPath id="SVGID_2_">
			<use xlink:href="#SVGID_3_" overflow="visible"/>
		</clipPath>
		<path clip-path="url(#SVGID_2_)" fill="currentColor" d="M21.94,13.033h4.25C26.19,5.835,20.356,0,13.157,0
		C5.96,0,0.125,5.835,0.125,13.033h4.318c0.156-4.711,4-8.488,8.748-8.488C17.94,4.545,21.784,8.322,21.94,13.033"/>
		<path clip-path="url(#SVGID_2_)" fill="none" stroke="currentColor" stroke-width="0.25" d="M21.94,13.033h4.25
		C26.19,5.835,20.356,0,13.157,0C5.96,0,0.125,5.835,0.125,13.033h4.318c0.156-4.711,4-8.488,8.748-8.488
		C17.94,4.545,21.784,8.322,21.94,13.033z"/>
		<path clip-path="url(#SVGID_2_)" d="M13.158,15.815c2.153,0,3.898-1.758,3.898-3.926s-1.745-3.925-3.898-3.925
		c-2.153,0-3.898,1.757-3.898,3.925S11.005,15.815,13.158,15.815"/>

		<ellipse clip-path="url(#SVGID_2_)" fill="none" stroke="currentColor" stroke-width="0.25" cx="13.158" cy="11.89" rx="3.898" ry="3.925"/>
	</g>
</svg>
